PathFileType	3	(X/Y/Z)	D:\Jess\PFP\Labelled\PA02\20250516\SRRun01.trc
DataRate	CameraRate	NumFrames	NumMarkers	Units	OrigDataRate	OrigDataStartFrame	OrigNumFrames
250.0	250.0	5	37	mm	250.0	35625	2501
Frame#	Time	C7			T10			CLAV			LSHO			RSHO			LASIS			RASIS			LPSIS			RPSIS			LILCR			RILCR			LGTR			LTHI			LLTHI			LLEP			LMEP			LPSH			LLSH			LDSH			LLMAL			LMMAL			LTOE			L5TH			LHEE			RGTR			RTHI			RLTHI			RLEP			RMEP			RPSH			RLSH			RDSH			RLMAL			RMMAL			RTOE			R5TH			RHEE			
		X1	Y1	Z1	X2	Y2	Z2	X3	Y3	Z3	X4	Y4	Z4	X5	Y5	Z5	X6	Y6	Z6	X7	Y7	Z7	X8	Y8	Z8	X9	Y9	Z9	X10	Y10	Z10	X11	Y11	Z11	X12	Y12	Z12	X13	Y13	Z13	X14	Y14	Z14	X15	Y15	Z15	X16	Y16	Z16	X17	Y17	Z17	X18	Y18	Z18	X19	Y19	Z19	X20	Y20	Z20	X21	Y21	Z21	X22	Y22	Z22	X23	Y23	Z23	X24	Y24	Z24	X25	Y25	Z25	X26	Y26	Z26	X27	Y27	Z27	X28	Y28	Z28	X29	Y29	Z29	X30	Y30	Z30	X31	Y31	Z31	X32	Y32	Z32	X33	Y33	Z33	X34	Y34	Z34	X35	Y35	Z35	X36	Y36	Z36	X37	Y37	Z37	

626	142.496	838.0364924084795	1515.687853381878	-319.6623737154214	740.8462484193567	1259.356816219446	-294.1376260273849	976.3002799442413	1414.495935399688	-350.337939345913	877.3903833012656	1477.06536317218	-498.1985571532545	948.4281896927017	1459.853350178744	-165.197817421572	910.5714620019266	969.8426683008142	-465.3519577311524	919.0345825835918	942.4382371440657	-209.560363763084	708.4192139039725	1052.963950913417	-358.552041371363	703.4321936549326	1055.557932551528	-307.7362492538422	840.2144458628494	1069.623758880938	-517.3443574366055	832.508779013105	1024.977427254459	-125.8215873494409	858.9399200197712	893.6250910553242	-536.8927336338082	997.6966195736304	782.1012654618331	-442.6539525439555	932.3274306230339	649.89074319372	-502.3754151561832	962.9495276367905	547.4265737632801	-482.2271704341119	nan	nan	nan	980.5315926017181	423.373041463546	-438.0197999414926	851.2175401637409	358.5379144119417	-495.9320683420135	878.7798328270452	255.5285631969895	-445.2686551465989	768.7378782842181	183.5111726485146	-477.3338234406941	nan	nan	nan	890.4705908198561	89.13630038676938	-492.6042568496818	840.7228777769059	73.32413181079404	-528.4452177109454	706.9794081975323	173.2802394800035	-414.3461633303804	793.7514929566125	873.6061125194628	-116.8052850293669	893.4911728091247	722.6570810775615	-232.0971904067687	749.2545445168951	641.9812943491504	-177.0537707528244	724.4900185205465	512.3266884014786	-206.2138641912671	nan	nan	nan	711.868290941295	400.0549315757777	-271.3826764436786	608.73918026182	331.6181580509599	-214.4493953755767	599.978916008826	224.3984546946515	-294.2341899257394	496.6609301284354	158.3860149475092	-265.4119683302244	nan	nan	nan	593.4244773727263	60.1873786737256	-282.2204127000636	558.646527007669	51.15827664269171	-247.7595821426483	427.7226980572179	174.3250906218513	-332.8969767054197	
627	142.5	838.2705900849521	1517.999998172632	-319.1839863373169	741.8763127531917	1261.813790073888	-292.439857753125	976.0804378308156	1417.403285455315	-351.5332907514681	876.1407342613705	1479.580369092483	-498.1334894834872	950.0426375270318	1462.524845658618	-166.4078498499389	911.2352548452353	974.0016363730235	-465.681493404553	920.9159865810908	944.9391180799395	-210.4356567648541	709.9052312090813	1055.942598742992	-358.2244673434459	704.9986015770811	1058.28589480868	-307.408000299164	839.6222746602587	1073.802014875336	-517.6199864996512	834.9044523225464	1027.104310650122	-126.3836495406241	860.274832698023	897.3094500379083	-537.2690986780032	998.4630441784312	785.6548261432898	-442.7654249834465	932.0205611912894	652.3694388846799	-501.6858814230571	963.0013108627679	549.6964385747261	-481.6737919776918	nan	nan	nan	984.43703286085	425.7249956034699	-437.8715253556019	857.6939527572447	356.0941845857536	-495.7781432032655	889.3522546634973	253.9671016365253	-445.2431817837698	782.2965798351729	177.6786647439779	-477.1649358626346	nan	nan	nan	907.8017143323902	88.41854863926481	-492.7195438340229	858.6888829677413	70.76405738835267	-528.6352481826353	721.1212403693434	164.7629862204577	-414.065510062927	795.1448033931092	875.8738764451789	-116.9915571355943	891.4821438019214	723.8783016584978	-233.7249407010259	746.0692534483334	645.2906546839723	-177.3464901700016	717.9942682183871	516.5077947560941	-206.4417823828984	nan	nan	nan	704.514773214678	404.2677738820859	-271.2287968325878	601.5321993057574	336.1407810110597	-213.8857663433284	593.7145933428926	227.9676753336053	-292.8996269944597	490.8110486386203	161.3358479670878	-264.27535809773	nan	nan	nan	584.6574177541245	60.21268040112438	-281.6847332559562	549.6087408314123	51.70597556772491	-247.4207342574121	422.8210614761496	179.5376312342055	-331.8730589399689	
628	142.504	838.4949417917857	1520.230002186154	-318.7020528431926	742.9223996693223	1264.212535267028	-290.8005818403264	975.8350841938006	1420.24237283931	-352.6789362343037	874.9547654258947	1481.991734240313	-498.043898999574	951.5591136353543	1465.114135985069	-167.6255093663686	911.9048181991068	978.0835014608175	-466.0142275338446	922.8170497801874	947.384316019502	-211.3594831664879	711.4344705691399	1058.887951622277	-357.9147001421903	706.5902958351541	1060.99237705925	-307.1103019236478	839.0682914272376	1077.915817465967	-517.8145368168023	837.4015984231216	1029.216348058486	-127.0527158530154	861.5731630347909	900.912909014061	-537.6573137532873	999.1920953676616	789.0145218709135	-442.9160210249117	931.5027172364183	654.7200846300573	-501.0756076056244	962.784228144565	551.67532501764	-481.1779379107024	nan	nan	nan	988.1311429112297	427.9554257282387	-437.7410338352365	864.1740671866396	353.6323004264274	-495.6467997090324	899.8422993464178	252.5684451096391	-445.15453159617	795.9867144591384	172.1389531254331	-476.9656522186644	nan	nan	nan	925.0054265935185	88.03371640464209	-492.5430120779214	876.6473023590364	68.57712603451303	-528.6054171914701	735.4222748432347	156.6557905149336	-413.8318823641167	796.642221435477	878.0985830637197	-117.2013889657633	889.572842842452	725.0646577301849	-235.2775931346466	742.923392075149	648.6601206997026	-177.6130301262044	711.6086004020505	520.7973307409486	-206.6430854972338	nan	nan	nan	697.3988221400081	408.5643466127325	-271.0347498386766	594.4746639427208	340.7938239175416	-213.3012692368258	587.7395151127785	231.5982652239446	-291.4736476721863	485.2674428376359	164.3629290414952	-263.1126725020774	nan	nan	nan	576.0671438336396	60.29149282850976	-281.1300326523927	540.7305810184332	52.37049026738749	-247.0888383368376	418.3374907187962	184.8749997283038	-330.8151569716935	
629	142.508	838.703874499707	1522.366866653667	-318.22552235398	743.9796494235339	1266.540275156672	-289.2238291116592	975.5647321146517	1423.001236738234	-353.7763812797637	873.8261351561123	1484.288901082934	-497.929920055486	952.9717907088879	1467.615217057453	-168.8513870635172	912.580346955132	982.0882018894038	-466.3424081411708	924.7288612485673	949.7604692895113	-212.3290414396229	712.9974519125266	1061.785276906342	-357.6199850896678	708.197040682822	1063.664776729989	-306.8391881673986	838.5541090860896	1081.951164056125	-517.924029500146	839.9941936879791	1031.302922170182	-127.8200107284813	862.8287379136847	904.42834910735	-538.0603436154067	999.8815026170371	792.175016614634	-443.1093163761261	930.7950312577758	656.9526946642518	-500.5560050075892	962.3217377187827	553.3686464467901	-480.7463373363744	nan	nan	nan	991.6197536039452	430.0619351717168	-437.6295208623544	870.6530823110376	351.1670752359237	-495.5379264881115	910.2275338466118	251.3452292110379	-444.9987652520967	809.7714710118711	166.9167219264641	-476.7301332988451	nan	nan	nan	942.0463824897723	87.98195684734705	-492.0616221609849	894.5599749839055	66.76235352175314	-528.335268240307	749.8318844952145	148.9923184707654	-413.6385957458696	798.2222085645784	880.2691101809477	-117.4322297125823	887.7618207640402	726.208748280427	-236.7447460781672	739.813165014835	652.0853936081503	-177.8599057757339	705.3639870433677	525.1796096568185	-206.8216748055647	nan	nan	nan	690.551510791694	412.9215488506707	-270.803421501149	587.5832391440227	345.5584107601984	-212.7012244168207	582.0477829505779	235.2728592205404	-289.9633866148782	480.0105198944386	167.4672196373304	-261.9268581496054	nan	nan	nan	567.6524582431632	60.43859902849026	-280.5538268161752	532.0096256208664	53.16645415068501	-246.7670055289693	414.2526286499341	190.321258458066	-329.7228049272063	
630	142.512	838.8923286020522	1524.399673050079	-317.7624921673749	745.0432557558698	1268.784504232975	-287.7136129690434	975.2706246115762	1425.668102473857	-354.8274465517126	872.7492843698827	1486.461095374109	-497.7921910549234	954.275837595846	1470.02238396749	-170.0857472610609	913.2629387667411	986.0152796404969	-466.6579286757992	926.6421788283949	952.0542584702899	-213.3409708243848	714.5849884312323	1064.621040299612	-357.3378787550032	709.808897763553	1066.291248548097	-306.5906788811516	838.0816814295965	1085.894798281049	-517.9464339516464	842.6760477560798	1033.354901888518	-128.6762357713439	864.0378174791174	907.8499581567833	-538.4800418150322	1000.528668490169	795.131124066297	-443.3477654232548	929.9202334451626	659.0759796844535	-500.1357332529309	961.6395051646585	554.7864212100801	-480.3850203992287	nan	nan	nan	994.9094328086271	432.0440856598896	-437.5378543923533	877.1234499661559	348.7153247569864	-495.4499543642733	920.4841610134922	250.3087504533258	-444.7725726460477	823.6090501643206	162.033184905533	-476.4507785839605	nan	nan	nan	958.886321117745	88.26090398047151	-491.2674196943362	912.3839552176862	65.31477508580041	-527.8054693683015	764.2967995021189	141.8009270752523	-413.474008276364	799.8633157833137	882.3761482006258	-117.680293083675	886.0482637696113	727.3044722283681	-238.1165759031935	736.7417884102043	655.5593369320542	-178.0933839607447	699.2955330753	529.6340529832369	-206.9818794850657	nan	nan	nan	684.0040262375065	417.3130968521716	-270.5373571044918	580.8772686233926	350.4117450371483	-212.0920275113027	576.6293242870012	238.9731492170058	-288.3792412870944	475.0142344685717	170.6485464003061	-260.7227984020816	nan	nan	nan	559.4076547890727	60.66981842728578	-279.9533673483552	523.4391390028953	54.10808312545771	-246.4583250744596	410.5394757569304	195.8584266294049	-328.5992080264037	
